<?xml version="1.0" standalone="no"?><!DOCTYPE svg PUBLIC "-//W3C//DTD SVG 1.1//EN" "http://www.w3.org/Graphics/SVG/1.1/DTD/svg11.dtd"><svg t="1545401757276" class="icon" style="" viewBox="0 0 1299 1024" version="1.1" xmlns="http://www.w3.org/2000/svg" p-id="1700" xmlns:xlink="http://www.w3.org/1999/xlink" width="253.7109375" height="200"><defs><style type="text/css"></style></defs><path d="M600.300308 0.708923c7.561846-0.472615 15.793231-0.708923 24.733538-0.708923h19.849846c8.940308 0 17.171692 0.236308 24.733539 0.708923 88.812308 3.072 140.721231 15.911385 155.726769 38.478769-28.987077 42.299077-72.940308 83.062154-131.938462 83.062154 293.179077 49.112615 444.652308 252.849231 454.459077 611.209846 19.534769 59.549538 58.604308 89.324308 117.248 89.324308 0 152.536615-374.941538 193.772308-620.228923 195.820308v0.078769a2310.577231 2310.577231 0 0 1-19.849846 0v-0.078769C379.746462 1016.516923 4.804923 975.320615 4.804923 822.784c58.643692 0 97.713231-29.774769 117.248-89.324308 9.806769-358.4 161.28-562.097231 454.419692-611.24923-58.604308 0-102.596923-27.648-131.938461-83.02277 15.044923-22.567385 66.953846-35.406769 155.766154-38.478769z" fill="#4A90E2" p-id="1701" data-spm-anchor-id="a313x.7781069.0.i1" class="selected"></path><path d="M642.441846 1024c206.454154 0 373.799385-65.181538 373.799385-265.058462s-186.88-139.067077-373.76-139.067076c-186.919385 0-373.838769-60.809846-373.838769 139.067076S436.066462 1024 642.441846 1024z" fill="#BCDBFF" p-id="1702"></path><path d="M438.035692 768a59.076923 39.384615 90 1 0 78.769231 0 59.076923 39.384615 90 1 0-78.769231 0Z" fill="#FFFFFF" p-id="1703"></path><path d="M753.112615 768a59.076923 39.384615 90 1 0 78.769231 0 59.076923 39.384615 90 1 0-78.769231 0Z" fill="#FFFFFF" p-id="1704"></path><path d="M556.780308 896.393846a19.692308 19.692308 0 1 1 39.384615 0c0 13.784615 11.815385 21.031385 46.276923 21.031385 34.500923 0 46.276923-7.286154 46.276923-21.031385a19.692308 19.692308 0 0 1 39.384616 0c0 40.566154-32.177231 60.416-85.661539 60.416-53.444923 0-85.661538-19.889231-85.661538-60.416z" fill="#4A90E2" p-id="1705"></path></svg>